<?xml version="1.0" encoding="UTF-8" standalone="no"?>
<!-- Created with Inkscape (http://www.inkscape.org/) -->

<svg
   width="210mm"
   height="297mm"
   viewBox="0 0 210 297"
   version="1.1"
   id="svg328"
   xml:space="preserve"
   inkscape:version="1.2.1 (9c6d41e, 2022-07-14)"
   sodipodi:docname="obrazok2.svg"
   xmlns:inkscape="http://www.inkscape.org/namespaces/inkscape"
   xmlns:sodipodi="http://sodipodi.sourceforge.net/DTD/sodipodi-0.dtd"
   xmlns="http://www.w3.org/2000/svg"
   xmlns:svg="http://www.w3.org/2000/svg"><sodipodi:namedview
     id="namedview330"
     pagecolor="#505050"
     bordercolor="#eeeeee"
     borderopacity="1"
     inkscape:showpageshadow="0"
     inkscape:pageopacity="0"
     inkscape:pagecheckerboard="0"
     inkscape:deskcolor="#505050"
     inkscape:document-units="mm"
     showgrid="false"
     inkscape:zoom="0.43773387"
     inkscape:cx="355.23868"
     inkscape:cy="600.82169"
     inkscape:window-width="1224"
     inkscape:window-height="750"
     inkscape:window-x="194"
     inkscape:window-y="104"
     inkscape:window-maximized="0"
     inkscape:current-layer="layer1" /><defs
     id="defs325" /><g
     inkscape:label="Layer 1"
     inkscape:groupmode="layer"
     id="layer1"><path
       style="fill:none;stroke:#0d0c0c;stroke-width:0.131382"
       d="m 57.187751,34.338889 c -0.116662,0.358673 -0.53906,1.343116 -0.612371,1.970725 -0.06071,0.51909 0.02483,0.544053 -0.109572,1.182436 -0.225844,1.072863 -0.671624,2.583227 -0.98602,3.678688 -1.888349,6.580516 -4.539501,12.953711 -6.524284,19.313111 -0.573087,1.836322 -1.105577,3.774862 -1.535852,5.649417 -0.199963,0.871578 -0.502797,1.780085 0.04585,2.496246 0.665054,-1.169816 1.599309,-3.80113 2.180936,-5.255269 1.781142,-4.452653 3.51144,-8.853942 5.090253,-13.400931 0.519483,-1.496043 1.06025,-2.985781 1.621251,-4.466978 0.171716,-0.453267 0.422917,-1.251542 0.961582,-1.308955 0.42042,-0.0448 0.684367,0.444988 0.809049,0.783953 0.358673,0.975379 0.321886,2.021966 0.639566,3.021254 1.167852,3.674222 5.022723,6.697839 7.430555,9.590864 1.974403,2.372228 4.074672,4.675349 5.831771,7.225994 2.954906,4.289089 5.371146,9.337165 6.87205,14.320606 0.972489,3.228844 1.717818,6.605474 1.800587,9.985022 0.09341,3.813077 -0.579526,7.609616 -0.09184,11.430208 0.677141,5.30544 3.512752,9.74076 5.171052,14.71473 1.81714,5.45038 2.804867,12.10512 -0.791311,16.94825 -0.516462,0.69554 -0.737446,1.0253 -1.275848,1.57092 -0.334235,0.33857 -1.182436,0.85636 -1.69627,0.89852 -0.496622,0.0407 -0.65507,-0.0758 -1.050922,-0.33751 -0.453924,-0.30008 -0.674777,-0.42278 -1.037391,-0.95147 -0.473368,-0.69027 -0.843469,-1.65593 -1.004281,-2.49428 -0.436713,-2.27565 -0.475208,-4.80804 -0.11443,-7.0946 0.123503,-0.78265 0.575188,-4.04222 1.763405,-3.79405 1.254038,0.26184 1.431273,2.67138 1.443097,3.66267 0.0099,0.82347 -0.04324,1.41523 -0.108525,2.10209 -0.04454,0.46707 -0.02024,0.71643 -0.02247,1.18243 -0.0023,0.47771 -0.03548,0.69016 -0.09367,1.18244 -0.187088,1.58012 -0.557978,4.96952 -0.694484,6.04357 M 56.39946,37.229287 c -0.263683,-0.44394 -0.196021,-0.551935 0,-0.788291 m -0.525526,0.525527 c -0.395591,0.950284 -1.34259,2.828912 -1.868117,3.941451 -1.703232,3.605771 -3.46401,7.355404 -5.015891,11.167445 -1.820161,4.471446 -3.148301,9.007398 -3.853556,13.795079 -0.461676,3.13411 -0.853985,6.305796 -1.075097,9.459474 -0.07393,1.055919 -0.181311,2.397204 -0.263156,3.41593 -0.03098,0.38442 -0.04006,0.562841 -0.08701,0.919685 -0.05314,0.404383 -0.05575,0.841875 -0.05575,1.313812 -1.38e-4,1.257973 0.07379,2.277368 -0.07572,3.41593 -0.04832,0.368772 -0.05507,0.681867 -0.05575,1.051044 -0.001,0.659004 0.01239,0.922563 -0.05576,1.445201 -0.110962,0.844267 -0.212714,2.220485 -0.206409,3.153162 0.0028,0.443805 0.05576,0.669249 0.05576,1.051054 0,0.294417 -0.07709,0.892069 -0.01693,1.182433 0.124316,0.598959 0.343047,0.689092 0.441054,1.182433 0.07447,0.375744 0.14399,1.685097 0.214022,2.233497 0.192216,1.506029 0.71025,2.962782 0.8415,4.466847 0.02825,0.32266 0.02562,0.62734 -0.261839,0.7653 -0.335943,0.16119 -0.629318,-0.24609 -0.771613,-0.50491 -0.318198,-0.579004 -0.421726,-1.217374 -0.558239,-1.836857 -0.26185,-1.187294 -0.338436,-2.441325 -0.338436,-3.678675 0,-0.425159 0.0096,-1.215552 0.08274,-1.575933 0.08825,-0.433549 0.206134,-0.599222 0.311369,-0.788944 m 37.706551,42.042149 c -0.03126,0.71642 -0.478887,2.32702 -0.534198,3.41593 -0.02693,0.533 -0.06898,1.37385 0.668076,1.41156 0.627611,0.0321 1.35691,-0.56179 1.836848,-0.88985 1.254301,-0.85713 2.635517,-2.13574 3.810069,-3.14935 5.101023,-4.40207 9.824725,-9.03657 14.583368,-13.79508 2.08634,-2.08634 4.0886,-4.24981 6.43769,-6.0584 3.99271,-3.0746 8.45704,-5.71103 11.76787,-9.57602 9.2046,-10.742557 14.15638,-23.818982 21.02238,-35.998586 0.90128,-1.599838 1.65016,-3.25656 2.4529,-4.861122 1.01033,-2.020922 2.0732,-4.044721 3.01783,-6.043562 1.49907,-3.174445 2.91799,-6.324584 4.40786,-9.590865 0.9617,-2.109333 2.72486,-6.167583 3.97167,-7.225994 0.628,1.224083 -0.90654,4.497722 -1.63176,6.437705 -2.23217,5.968144 -4.56288,12.168048 -7.33636,17.999298 -0.82507,1.736862 -1.63701,3.492514 -2.40691,5.255258 -0.36918,0.846496 -0.875,1.432453 -0.31794,2.233487 1.69482,-2.333724 2.86412,-5.119015 4.29881,-7.620135 0.32714,-0.571506 1.1601,-2.24203 1.97993,-2.021572 0.53734,0.144656 0.54653,0.931502 0.5531,1.364666 0.0137,0.999289 -0.0853,2.006856 -0.25225,3.021783 -0.74099,4.505209 -1.86694,9.07243 -1.97992,13.663699 -0.13534,5.525122 -0.72917,11.198181 -2.58822,16.4227 -1.56475,4.39643 -3.69051,8.62745 -5.79261,12.61265 -0.4559,0.86318 -1.03135,1.93644 -1.50696,2.8904 -0.83953,1.68286 -1.59234,3.43195 -2.24137,5.25527 -1.0931,3.07091 -0.8001,6.29633 -1.3309,9.45949 -0.69238,4.12787 -2.23743,7.95055 -4.33296,11.56158 -1.81044,3.11952 -4.21078,6.16679 -6.77667,8.66923 -0.59778,0.58306 -1.18112,1.02503 -1.83936,1.50234 -0.98798,0.71735 -2.28996,1.66067 -3.4159,2.19277 -1.90504,0.90127 -3.72336,1.43469 -5.91217,1.43073 -0.56365,-8.3e-4 -0.81064,-0.0237 -1.31383,-0.096 -0.60173,-0.0853 -1.48593,-0.2181 -2.1021,-0.35341 -1.02611,-0.22729 -2.25846,-0.61487 -3.28454,-0.76465 -0.32847,-0.0486 -0.59911,-0.15239 -0.75939,0.11165 -0.16949,0.27722 0.1432,0.6188 0.27065,0.73968 0.48348,0.45853 1.59102,1.10755 2.19669,1.56213 0.808,0.60436 1.64622,1.23893 2.36356,1.95496 0.37969,0.37969 0.5978,0.6661 0.94332,1.04973 0.67399,0.74889 1.39659,1.55689 2.06926,2.36487 1.51615,1.82359 3.11507,3.86788 4.4775,5.7808 0.32451,0.45459 0.59908,0.83559 0.91966,1.31381 0.89208,1.33091 1.65541,2.54093 2.49625,3.81008 0.52685,0.79486 1.04843,1.46622 1.57921,2.23348 2.29261,3.30951 4.78624,6.44691 7.30219,9.59088 8.72111,10.89811 18.28045,21.24048 27.03836,32.18852 2.96134,3.70233 5.87802,7.39809 8.73294,11.16744 1.06945,1.41235 3.14528,4.08335 4.0899,5.25526 l -0.6569,0.65692 c 0.25489,0.15372 0.52685,0.22202 0.89735,0.4283 0.26538,0.14845 0.63194,0.56363 0.81587,0.75413 0.61092,0.63194 1.04186,1.08127 1.83409,1.82751 0.60699,0.57283 1.05762,0.98538 1.67906,1.66462 0.63195,0.68974 0.35079,0.94857 1.00506,1.76313 0.66086,0.82377 1.35193,1.66855 2.01935,2.49626 1.77759,2.20196 3.51577,4.46435 5.30782,6.70046 1.26651,1.58184 3.78511,4.36056 5.22899,4.86113 0.35867,-1.32302 -0.96434,-2.6053 -1.80255,-3.81008 -2.24533,-3.22804 -4.70479,-5.86355 -7.52555,-8.67118 -1.33747,-1.3309 -2.91273,-2.78791 -3.81007,-3.02178 M 46.939971,68.366743 l 0.131378,0.788286 0.394145,-0.394148 m -0.525525,0.525527 c -0.105374,0.828893 -0.373389,1.606537 -0.507923,2.496255 -0.307694,2.034442 -0.804451,4.935486 -0.805895,7.094608 m 96.565549,-4.9925 0.52552,0.394137 m -0.6569,-0.131339 0.52553,0.394149 m -0.65691,-0.131329 c -0.0448,0.20928 -0.007,0.429486 -0.24701,1.051054 -0.27852,0.718532 -0.75281,1.582752 -1.09572,2.233487 -0.60567,1.150642 -1.2363,2.501241 -1.8446,3.678688 -0.83163,1.611391 -1.98648,3.490284 -2.85623,5.12388 m 6.56908,-11.692961 -0.52552,0.262758 M 43.1299,105.02231 c 0.470998,0.93729 0.738491,2.03012 1.091518,3.02177 0.236229,0.66362 0.458785,1.31634 0.706307,1.97075 0.218094,0.57622 0.624852,1.45794 0.934388,1.96296 0.123628,0.20154 0.417136,0.62157 0.682133,0.31493 0.240823,-0.2788 0.142681,-0.75309 0.09355,-1.09546 -0.235568,-1.63991 -1.15616,-3.29939 -1.949573,-4.72974 -0.327796,-0.59109 -0.820738,-1.93592 -1.558321,-1.57658 -0.260925,-0.72011 -0.308477,-1.08351 -0.920586,-2.49626 -0.268939,-0.62064 -0.160688,-0.67306 -0.227692,-1.18243 -0.04131,-0.31308 -0.08935,-0.5962 -0.128034,-0.91967 -0.04997,-0.417014 -0.03291,-0.62472 -0.03813,-1.051043 -0.0069,-0.514377 -0.08164,-0.766761 -0.119222,-1.313833 -0.0402,-0.588456 -0.0096,-0.869487 -0.01239,-1.445195 -0.0028,-0.602769 -0.09816,-0.938859 -0.126105,-1.576581 -0.04089,-0.93294 -0.0054,-1.363996 -0.0054,-2.233487 0,-0.927944 0,-2.260555 0,-3.153161 0,-0.393358 -0.01583,-0.649164 0.0223,-1.051064 0.0373,-0.391908 0.08563,-0.583322 0.104355,-0.919664 0.019,-0.341724 0.0358,-0.584123 0.0804,-0.919675 0.124453,-0.936356 0.226893,-1.940103 0.374172,-2.890383 0.144527,-0.931511 0.380493,-2.253076 0.618814,-3.152634 0.179867,-0.678472 0.363395,-0.808006 0.902071,-0.920202 m 6.4377,62.537692 c -0.208635,0.35183 -0.345796,0.60514 -0.223612,1.04329 0.107081,0.38443 0.442626,0.52645 0.880652,0.52552 1.617178,-0.003 3.25971,-0.68423 4.860991,-0.87434 0.290486,-0.0345 0.484929,-0.0265 0.78829,-0.0493 0.623144,-0.0469 1.079827,-0.21953 1.313817,-0.64521 -0.785399,-0.34776 -2.120895,-0.67332 -3.547305,-0.65637 -1.514962,0.0179 -2.914966,0.60591 -4.072833,0.65637 0.04217,-0.96644 0.904038,-2.67966 1.20766,-4.20421 0.446173,-2.24047 0.335549,-4.75365 -0.187614,-6.96323 -0.760305,-3.21123 -2.948466,-6.05394 -4.69177,-8.80258 -2.227314,-3.51171 -4.161126,-6.81805 -5.390204,-10.7733 -0.811415,-2.61094 -1.18585,-5.40675 -1.18585,-8.14567 0,-0.53473 -0.239643,-2.35882 0.210607,-2.6045 0.384817,-0.20995 0.773969,0.31979 1.065513,0.6318 0.405961,0.43462 0.594241,0.54604 0.825994,0.65889 m 1.182436,1.97071 0.394136,0.52553 m 0.131336,0.26277 c -0.263941,0.26394 -0.130236,0.13025 -0.394135,0.39414 m 0.525528,-0.13134 c -0.263955,0.26397 -0.130236,0.13025 -0.39415,0.39416 m 62.143548,75.01895 c -0.35474,0.46772 -0.46905,0.76596 -1.05107,1.31381 l -0.6569,-0.39414 c -0.32321,0.75018 -0.32714,1.51483 -0.40205,2.36487 -0.0315,0.36919 -0.15107,0.74888 -0.5255,0.92098 -0.73313,0.33635 -2.02459,-0.71077 -2.61976,-1.01821 -2.104742,-1.08652 -4.572075,-2.18881 -6.831849,-2.83127 -2.063345,-0.58596 -4.119068,-1.01426 -6.174929,-1.63307 -2.34385,-0.70552 -4.675876,-1.62257 -6.96323,-2.50808 -0.680032,-0.26408 -1.299629,-0.5045 -1.970725,-0.75807 -1.259689,-0.47429 -2.543682,-0.9026 -3.81007,-1.53586 -1.107679,-0.55441 -2.192367,-1.19163 -3.284542,-1.89451 -1.830411,-1.17851 -4.869138,-3.07039 -5.81351,-5.03324 -0.223481,-0.46379 0.201934,-0.73967 0.234911,-1.18244 0.05439,-0.73311 -1.046982,-1.50695 -1.63925,-1.60285 -0.625903,-0.10242 -0.373387,0.58202 -0.183278,0.94594 0.267886,0.51238 0.417794,0.76202 0.569278,1.05106 -0.948708,0.46509 -2.240847,-0.31139 -3.678689,0.18919 -2.208395,0.76859 -4.377245,1.79862 -6.569085,2.62499 -0.72654,0.27461 -1.36453,0.49927 -2.102107,0.6832 -1.259031,0.31531 -2.684654,0.44406 -3.941452,0.84216 -0.696322,0.22071 -2.242027,1.01953 -2.759016,1.323 -0.365502,0.21416 -0.784998,0.54918 -0.946995,0.071 -0.05879,-0.17343 0.03648,-0.4362 0.101462,-0.60963 0.104712,-0.27852 0.212966,-0.49794 0.385077,-0.73178 0.220983,-0.30087 0.295083,-0.5032 0.651654,-0.68845 0.268675,-0.13927 0.795778,-0.11826 1.122656,-0.2378 0.888666,-0.32715 1.770761,-0.78435 2.496252,-1.40316 0.823369,-0.70158 2.279866,-2.68676 2.685574,-3.5079 0.256457,-0.51894 0.04087,-0.66741 0.307039,-1.31381 0.288384,-0.69895 0.812989,-0.80273 1.197806,-1.32695 0.857529,-1.16929 1.168904,-2.805 1.824893,-4.0597 0.207977,-0.39809 0.668075,-0.87106 0.589246,-1.30988 -0.14938,-0.82901 -1.391332,-0.21809 -1.874815,0.0303 -0.733111,0.37576 -1.827783,0.99063 -2.495203,1.38214 -0.320571,0.1892 -0.52487,0.3613 -0.744014,0.68844 -0.194051,0.28905 -0.348556,0.52946 -0.439472,0.65428 -0.758729,-0.69501 -1.930916,-0.61224 -3.021779,-0.33109 -2.539347,0.65297 -3.839636,3.165 -6.174936,4.10701 -0.684896,0.27589 -1.567788,0.36787 -2.233492,0.1537 -0.368529,-0.11948 -0.713145,-0.23779 -0.977086,-0.54917 -0.244641,-0.29034 -0.258958,-0.50056 -0.381402,-0.88419 -0.346984,-1.08916 -0.480855,-2.6237 -0.480855,-3.81008 0,-4.86505 1.887294,-8.79705 5.518029,-12.06464 0.899702,-0.80984 1.95588,-1.58696 3.021779,-2.15322 1.359669,-0.72234 3.080902,-1.6424 4.204216,-1.8107 m 9.722245,11.4302 c 0.724439,-0.66741 1.771682,-1.67249 2.627634,-2.491 2.037862,-1.94878 4.03644,-3.93369 6.04356,-5.91689 0.907847,-0.89709 2.179227,-1.83869 2.890396,-2.10263 0.269726,1.10701 -0.742175,2.02117 -1.550961,3.02177 -1.835271,2.2704 -3.997945,4.30959 -6.331941,6.06064 -0.771867,0.57808 -1.603645,1.25864 -2.496252,1.64096 -0.62945,0.26933 -0.798669,0.0101 -1.182436,-0.21285 l -0.262763,0.52553 0.262763,0.26277 0.525528,-0.26277 m 41.122456,-2.62762 c -0.4375,0.42173 -0.59383,0.71997 -1.182426,0.67004 -0.95908,-0.0815 -2.602664,-0.91705 -3.221477,-1.61337 -0.212837,-0.2407 -0.521584,-0.6414 -0.314006,-0.94766 0.236491,-0.35078 0.863187,-0.0961 1.170617,0.0124 0.989306,0.3479 2.000936,0.93426 2.890392,1.49264 0.76596,0.48217 0.68056,0.62668 1.23235,1.10886 0.27723,0.24436 0.50977,0.32582 0.86976,0.41253 0.50713,0.12225 0.99061,0.25488 1.4452,0.31006 m -3.54731,-0.78828 c 0.60043,0.30479 0.73837,0.15896 1.05106,0 m -45.983594,3.94146 0.283653,-0.0802 c 0.923087,-0.14451 0.911527,-0.2483 1.949834,-0.89471 0.539848,-0.33634 1.000604,-0.60172 1.4452,-0.86448 m -2.890398,1.97072 -0.262763,0.39414 m -6.306321,2.36488 0.91967,-0.26277 m 0.131379,0.13135 c 0.476653,0.27852 1.023989,0.071 1.706778,1.18505 0.482041,0.78567 0.311244,1.7973 0.789473,2.36224 m -3.021777,-2.89039 c -0.234386,0.38495 -0.343959,0.66612 -0.295873,1.05105 0.0044,0.0342 0.07094,0.25358 0.133085,0.52553 0.08068,0.35342 0.07962,0.43619 0.117199,0.52553 0.103267,0.24437 0.153454,0.35211 0.702498,0.91966 -0.436188,0.34817 -1.011113,0.51503 -1.445198,0.52816 -0.287727,0.0101 -0.521586,-0.0552 -0.912053,0.0354 -0.337782,0.0802 -0.442492,0.26146 -0.583071,0.62013 -0.190504,0.48479 -0.20719,0.77515 -0.465093,1.14695 -0.288776,0.41517 -0.580312,0.55838 -0.752421,0.82903 -0.264998,0.41647 -0.573875,1.39658 -0.177761,1.96415 0.300865,-0.3521 0.79683,-0.99982 1.011376,-1.31382 0.351578,-0.5137 0.589904,-0.63851 -0.0917,-1.31381 m 0.919672,-2.10212 0.263419,-1.17717 0.421343,-0.52947 0.891817,-0.26408 m 0.394146,0.26276 c 0.290748,0.23912 0.685024,0.46116 0.525528,1.18243 m 1.707961,-0.39413 -0.131379,0.65692 m -14.714755,0.52553 c -0.272738,1.14563 -0.10573,2.38326 0.647326,3.4159 0.327792,0.44933 0.69014,0.79355 1.055118,1.18243 0.29259,0.31139 0.669131,0.89603 0.952649,1.04843 0.578739,0.31007 0.477318,0.0671 1.154985,0.15242 0.265249,0.0329 0.577416,0.088 0.788286,0.12348 0.63181,0.10642 1.53717,0.32845 2.233493,0.38363 l -0.525529,1.31381 0.131337,0.13134 0.131338,0.13134 0.131336,0.13133 m 4.335596,-7.88289 c 0.460886,0.76463 0.486899,1.00901 1.313817,1.00374 1.10308,-0.005 1.030425,-0.3337 1.839343,0.44145 m -0.525527,-0.91966 0.525527,-0.13134 m -2.102107,0.65691 c -0.642456,0.52815 -1.038572,0.72655 -1.707963,0.91967 m 16.422713,1.18244 0.65691,0.13134 m -19.18173,0.7883 c -0.04494,0.48478 0.08527,0.57675 0.525528,0.39414 m -0.394146,0.26276 -0.262763,0.26276 m -5.386653,0.91968 c 0.184464,0.27852 0.666639,0.38233 0.784087,1.31513 0.05727,0.45589 -0.03318,0.70289 -0.08963,1.18112 -0.04089,0.34554 -0.03703,0.56232 -0.03759,0.91966 -0.0014,1.19822 -0.156477,1.77367 0,2.49627 1.118583,-0.55708 2.19683,-2.02197 3.153156,-3.02178 m 0.39415,-2.75902 c 0.337258,0.1261 0.334237,0.10518 0.788291,0.39415 m -4.072827,0.52551 c 0.812061,0.10903 1.256791,0.26278 2.364871,0.26278 m 0.788286,-0.26278 0.262762,0.26278 m 58.333476,22.72903 -0.39415,-0.78829 c -0.5991,0.46641 -0.48086,1.2087 -0.5978,1.97072 -0.18261,1.18637 0.21284,2.12839 1.12332,2.65524 0.40072,0.23253 0.65822,0.2864 0.91967,0.36654 -0.0579,-0.561 -1.01033,-1.98518 -1.19558,-3.02178 -0.0789,-0.44538 -0.21283,-0.87106 0.28905,-0.94988 0.43882,-0.0696 1.11806,0.54259 1.43206,0.77909 0.53209,0.40202 0.7423,0.80931 1.31381,0.99586 0.52291,0.17081 0.74888,-0.2286 0.9131,-0.56362 0.47429,-0.97222 1.04973,-2.60793 1.47804,-3.67737 0.40861,-1.01952 0.8277,-2.19146 1.32171,-3.15316 0.43881,-0.85661 0.92885,-1.83541 1.93657,-2.12838 1.01165,-0.293 2.44107,0.25225 3.41592,0.55575 2.60924,0.81061 5.0017,1.7986 7.35737,3.36862 0.62538,0.41648 3.119,2.5383 3.86,1.80124 0.53866,-0.53604 -0.41517,-2.22429 -0.62013,-2.80895 -0.97485,-2.78266 -2.19538,-5.46679 -2.99551,-8.27705 -0.22204,-0.78039 -0.43223,-1.58183 -0.51238,-2.36486 -0.0197,-0.1997 -0.0407,-0.76071 0.27195,-0.76071 0.25227,0 0.3416,0.2365 0.48745,0.50057 0.50318,0.91179 0.93017,2.19409 1.26125,3.15054 0.89339,2.57246 1.61468,5.2408 2.49493,7.8829 0.48745,1.46228 0.86188,3.04411 1.9392,4.20422 1.24419,1.33746 2.83785,2.34647 4.19239,3.56963 1.7211,1.55424 3.53023,3.30951 5.11863,4.97018 3.44484,3.60248 6.40355,8.02347 9.70516,11.69296 0.29298,0.32584 0.50451,0.59385 0.81588,0.91967 0.54919,0.57545 0.98143,0.98669 1.57133,1.57659 0.61093,0.61093 1.37294,1.37292 1.97074,1.97072 0.53077,0.53079 0.86974,0.86974 1.44519,1.44521 0.59516,0.59515 1.14039,1.08521 1.70797,1.59892 0.94463,0.85528 1.76314,1.7789 2.75902,2.73141 0.381,0.36394 0.68186,0.59253 1.05104,0.93675 0.50582,0.47035 1.0274,1.01558 1.57659,1.56477 2.32938,2.32939 4.85061,4.42624 7.22598,6.70045 m -62.66908,-51.6331 c 0.22334,0.7528 1.79992,1.75525 1.64226,2.36748 -0.14188,0.55182 -0.72391,0.76596 -0.9039,1.3112 -0.20496,0.62276 0.39152,1.09966 -0.22336,1.51615 -0.71996,0.48873 -0.68975,1.03397 -0.40069,1.63701 0.31267,0.64903 1.00243,1.02347 0.85266,1.5595 -0.21678,0.78434 -1.84592,0.52423 -2.3951,0.14714 -1.23105,-0.84739 0.46903,-2.29918 0.49532,-3.15183 0.0138,-0.41254 -0.0919,-0.76071 -0.39547,-1.17982 -0.32582,-0.45064 -0.70025,-0.66741 -0.90521,-0.79092 m 1.57658,-3.15315 -0.063,3.02177 -0.46246,0.91968 m -0.39415,-1.18244 v 0.52553 m 0.26277,0.65691 c -0.18394,0.21151 -0.34554,0.37443 -0.64771,0.91967 -0.39809,0.71866 -1.33484,2.34516 -1.50432,3.28454 -0.21153,1.16666 0.17079,2.10343 0.44407,3.28454 m 4.20421,-6.96322 c 0.0815,0.94857 1.53191,1.96153 2.49625,1.05105 -0.76727,-0.62801 -1.52139,-1.03399 -2.36487,-0.39414 m 0,-0.52553 h 0.26277 m -0.65693,0.39413 h 0.13134 m -1.18243,1.31383 c -0.31795,-0.17343 -0.57151,-0.29036 -0.13134,-0.91968 h 0.13134 m 1.18243,3.28456 c 0.29692,0.16946 0.58465,0.49792 0.10904,0.70945 -0.8658,0.38495 -1.6068,-0.40466 -2.43188,0.22203 -0.39808,0.30218 -0.29561,1.12332 -0.30744,1.43339 -0.0184,0.51238 -0.13395,0.68317 -0.26013,0.91966 m 22.99179,1.44521 -0.5229,-0.53999 0.0749,-0.60829 0.54261,0.37312 -0.0945,0.77516 m -23.91147,-0.91968 c 0.40991,0 0.21679,0 0.39415,0 m 1.05105,0.13134 c 0.0867,0.27853 0.1721,1.35717 1.18244,0.6569 v 0 m 0.26276,0.13134 -0.65691,0.39413 m 21.94066,-0.26267 c 0.66085,1.04973 2.41742,0.86974 3.67868,1.47934 2.01539,0.97223 3.71023,2.2992 4.98857,4.17007 1.34798,1.97073 2.44764,4.36843 2.83653,6.70045 0.0814,0.48743 0.0827,0.72655 0.15898,1.18245 0.0565,0.34159 0.10642,0.57413 0.20889,0.91967 0.0775,0.25882 0.12086,0.47823 0.27721,0.72391 0.28772,0.44803 0.67136,0.56101 1.02609,1.3782 2.49231,5.74532 -0.33371,11.79545 -2.53304,17.07962 m -19.83864,-33.50233 c -0.21152,0.62537 -0.33502,1.70664 -0.49136,2.36487 -0.0972,0.40859 -0.13395,0.77909 -0.20363,1.31381 -0.0512,0.39941 -0.0722,0.76333 -0.31664,1.14434 -0.37445,0.58464 -0.48873,0.61093 -0.86054,1.35191 -0.5216,1.04055 -1.02347,2.04298 -1.63308,3.02178 -0.8553,1.37031 -1.80781,2.77215 -2.76558,4.07284 -0.47298,0.64114 -1.27179,1.91554 -2.13102,2.02591 -1.06813,0.13671 -0.78436,-2.56721 -0.79617,-3.07698 -0.0123,-0.48742 -0.0775,-0.60959 -0.1301,-0.78828 -0.26145,0.13671 -0.44933,0.25358 -0.6845,0.65954 -0.36786,0.63851 -1.31906,2.3018 -1.83014,3.01915 -1.90898,2.67755 -4.04394,5.21586 -6.285296,7.62014 -0.50188,0.53866 -1.34141,1.48723 -1.803882,1.95628 -0.359986,0.36524 -0.608293,0.41516 -1.049737,0.8382 -0.51896,0.49663 -0.684491,0.95777 -1.158263,1.67251 -0.383892,0.57938 -0.824809,1.14039 -1.11726,1.70794 -0.335035,0.65035 -0.191171,0.74363 -0.509769,1.44521 -0.149904,0.32977 -0.326745,0.60304 -0.498062,0.91966 -0.739946,1.36506 -1.589067,2.83654 -2.368556,4.20422 -2.515553,4.41444 -5.0122,8.92608 -7.788821,13.13818 -0.45077,0.68318 -0.902987,1.33484 -1.306459,1.97072 -0.258427,0.40729 -0.472581,0.76201 -0.751506,1.18244 -2.16149,3.25827 -4.170579,6.74777 -6.727136,9.72224 -0.542474,0.63065 -1.938274,2.68546 -2.865566,2.50808 -0.611581,-0.11689 0.120213,-1.85904 0.273406,-2.2453 0.949627,-2.3938 2.224948,-4.62728 3.547305,-6.83187 4.056805,-6.7609 8.31344,-13.39173 13.217395,-19.57587 1.08508,-1.369 2.162794,-2.74851 3.301224,-4.07284 0.372065,-0.43224 1.00993,-1.20739 1.352444,-1.56212 0.371143,-0.38494 0.598574,-0.44931 0.863957,-0.53997 m 11.824362,-29.03537 -0.78829,0.13134 m 21.54659,0 c -0.0671,0.64904 -0.57284,1.7776 -1.57658,2.52779 -1.49907,1.11937 -3.36075,1.34797 -4.59837,2.86018 -0.71208,0.87238 -1.80256,3.05067 -3.01388,3.20703 -0.78961,0.10115 -0.66348,-1.13119 -0.6648,-1.50039 -0.003,-0.60697 0,-1.91028 0,-2.23347 m -10.11639,-4.59836 c -0.007,0.29166 0.003,0.55574 -0.1616,1.05105 -0.16817,0.5045 -0.34684,1.44388 -0.81063,1.71453 -0.53734,0.31267 -0.9696,-0.49268 -1.26127,-0.79487 m 5.78081,-0.65691 c -0.071,0.26408 -0.20232,0.67925 -0.32056,0.91969 -0.20234,0.41909 -0.32585,0.46377 -0.0736,1.05103 0.19182,0.44408 -0.0407,2.03775 -0.14978,2.36488 -0.15109,0.45326 -0.30612,0.52553 -0.5334,1.05105 -0.26145,0.60436 -0.42305,1.7198 -0.51633,2.36488 -0.0998,0.68975 -0.2667,1.189 -0.37707,1.83934 m 1.70797,-8.67118 c 0.14189,0.26669 0.34028,0.44931 0.13134,1.18243 m -4.46699,-0.39414 c -0.10124,1.15747 -1.11016,3.30292 -1.62913,4.59836 -1.59103,3.97691 -3.29373,8.12858 -5.100216,11.95573 -0.17212,0.36524 -0.29693,0.68843 -0.46772,1.05104 -0.198389,0.41911 -0.378391,0.74756 -0.583345,1.18243 -0.417801,0.88553 -1.085205,1.75264 -0.365234,2.62765 m 11.955715,-21.28383 0.52554,1.05105 m -0.65691,-0.39415 c 0.0788,0.52685 0.20626,0.6753 0.52551,1.05105 m -0.6569,-0.39414 c 0.0749,0.49793 0.19444,0.66085 0.52553,1.05105 m -0.65691,-0.39415 c -0.0223,0.70684 0.0262,0.92625 0.13134,1.18243 m 29.56089,8.53982 c 0,0.92493 -0.14583,3.42513 -0.61356,4.86113 -1.14565,3.51577 -3.37914,6.56646 -6.48106,8.62389 -1.63175,1.0839 -3.89152,1.65936 -5.51802,0.28247 -0.80406,-0.68187 -1.5503,-1.52534 -1.98387,-2.46866 -0.68187,-1.48462 -1.1036,-3.48031 -1.03266,-5.12389 0.0722,-1.67511 0.57676,-3.46584 1.29411,-4.9925 1.10623,-2.35437 3.13608,-4.45909 5.66385,-5.28811 1.59631,-0.52422 3.29245,-0.40992 4.86115,0.22335 1.5503,0.62668 2.25318,1.60941 3.41591,1.91159 m -41.385223,11.03607 -0.262779,0.65691 m -3.28453,4.46698 0.525526,0.52552 m 75.018956,7.22601 0.13133,0.6569 m 5.51804,4.9925 c -0.33372,0.33371 -0.24963,0.24963 -0.65692,0.65691"
       id="path461" /></g></svg>
