<?xml version="1.0" encoding="UTF-8" standalone="no"?>
<!-- Created with Inkscape (http://www.inkscape.org/) -->

<svg
   width="210mm"
   height="297mm"
   viewBox="0 0 210 297"
   version="1.1"
   id="svg5"
   xml:space="preserve"
   sodipodi:docname="presnost_test.svg"
   inkscape:version="1.2.1 (9c6d41e, 2022-07-14)"
   xmlns:inkscape="http://www.inkscape.org/namespaces/inkscape"
   xmlns:sodipodi="http://sodipodi.sourceforge.net/DTD/sodipodi-0.dtd"
   xmlns="http://www.w3.org/2000/svg"
   xmlns:svg="http://www.w3.org/2000/svg"><sodipodi:namedview
     id="namedview633"
     pagecolor="#505050"
     bordercolor="#eeeeee"
     borderopacity="1"
     inkscape:showpageshadow="0"
     inkscape:pageopacity="0"
     inkscape:pagecheckerboard="0"
     inkscape:deskcolor="#505050"
     inkscape:document-units="mm"
     showgrid="false"
     inkscape:zoom="0.2102413"
     inkscape:cx="409.05378"
     inkscape:cy="575.52916"
     inkscape:window-width="1565"
     inkscape:window-height="810"
     inkscape:window-x="0"
     inkscape:window-y="38"
     inkscape:window-maximized="0"
     inkscape:current-layer="layer1" /><defs
     id="defs2" /><g
     id="layer1"
     transform="matrix(0.80121407,0,0,0.80121407,21.632058,22.256759)"><path
       style="fill:none;stroke:#ff0000;stroke-width:1.0362"
       d="M 21.203025,11.188703 H 47.18839 V 37.17407 H 21.203025 V 11.188703 m 129.926835,0 h 25.98537 V 37.17407 H 151.12986 V 11.188703 M 43.94022,56.6631 c 0,-5.391972 -4.352548,-9.744516 -9.744511,-9.744516 -5.391965,0 -9.744514,4.352544 -9.744514,9.744516 0,5.391962 4.352549,9.744502 9.744514,9.744502 5.391963,0 9.744511,-4.35254 9.744511,-9.744502 m -3.24817,0 c 0,-3.589233 -2.907113,-6.496349 -6.496341,-6.496349 -3.58923,0 -6.496342,2.907116 -6.496342,6.496349 0,3.589222 2.907112,6.496334 6.496342,6.496334 3.589228,0 6.496341,-2.907112 6.496341,-6.496334 m -3.248171,0 c 0,-1.793 -1.455181,-3.248168 -3.24817,-3.248168 -1.792992,0 -3.248172,1.455168 -3.248172,3.248168 0,1.792989 1.45518,3.248167 3.248172,3.248167 1.792989,0 3.24817,-1.455178 3.24817,-3.248167 m 136.423181,0 c 0,-5.391972 -4.35256,-9.744516 -9.74452,-9.744516 -5.39196,0 -9.74451,4.352544 -9.74451,9.744516 0,5.391962 4.35255,9.744502 9.74451,9.744502 5.39196,0 9.74452,-4.35254 9.74452,-9.744502 m -3.24817,0 c 0,-3.589233 -2.90712,-6.496349 -6.49635,-6.496349 -3.58922,0 -6.49633,2.907116 -6.49633,6.496349 0,3.589222 2.90711,6.496334 6.49633,6.496334 3.58923,0 6.49635,-2.907112 6.49635,-6.496334 m -3.24817,0 c 0,-1.793 -1.45519,-3.248168 -3.24818,-3.248168 -1.79299,0 -3.24817,1.455168 -3.24817,3.248168 0,1.792989 1.45518,3.248167 3.24817,3.248167 1.79299,0 3.24818,-1.455178 3.24818,-3.248167 m -133.175011,32.481704 6.496341,-12.99269 6.49634,12.99269 12.992687,3.248167 -9.744515,9.744529 3.24817,12.99268 -12.992682,-6.49635 -12.992683,6.49635 3.24817,-12.99268 -9.744512,-9.744529 12.992684,-3.248167 m 129.926831,0 6.49635,-12.99269 6.49634,12.99269 12.99268,3.248167 -9.74451,9.744529 3.24817,12.99268 -12.99268,-6.49635 -12.99268,6.49635 3.24816,-12.99268 -9.74451,-9.744529 12.99268,-3.248167 M 34.195709,128.12286 h 3.24817 v 3.24817 h -3.24817 v -3.24817 m 0,9.74451 h 6.496341 v 6.49635 h -6.496341 v -6.49635 m 0,12.99269 h 9.744511 v 9.74451 h -9.744511 v -9.74451 m 0,16.24086 H 47.18839 v 12.99267 H 34.195709 v -12.99267 m 0,19.48901 h 16.240853 v 16.24086 H 34.195709 v -16.24086 m 0,22.7372 h 19.489023 v 19.48903 H 34.195709 V 209.32713 M 164.12254,128.12286 h 3.24818 v 3.24817 h -3.24818 v -3.24817 m 0,9.74451 h 6.49635 v 6.49635 h -6.49635 v -6.49635 m 0,12.99269 h 9.74452 v 9.74451 h -9.74452 v -9.74451 m 0,16.24086 h 12.99269 v 12.99267 h -12.99269 v -12.99267 m 0,19.48901 h 16.24086 v 16.24086 h -16.24086 v -16.24086 m 0,22.7372 h 19.48903 v 19.48903 H 164.12254 V 209.32713 M 43.94022,238.56066 v 48.72257 m 129.92684,-48.72257 v 48.72257"
       id="path686" /></g></svg>
