<?xml version="1.0" standalone="no"?>
 <!DOCTYPE svg PUBLIC "-//W3C//DTD SVG 1.1//EN" 
 "http://www.w3.org/Graphics/SVG/1.1/DTD/svg11.dtd"> 
<svg
  xmlns:svg="http://www.w3.org/2000/svg"
  xmlns="http://www.w3.org/2000/svg"
  xmlns:xlink="http://www.w3.org/1999/xlink"
  version="1.1"
  width="297.0022mm" height="210.0072mm" viewBox="0.0000 0.0000 297.0022 210.0072">
<title>SVG Image created as Remote Controlled On-Off Switch Project-F_Cu.svg date 2025/12/25 14:22:49 </title>
  <desc>Image generated by PCBNEW </desc>
<g style="fill:#000000; fill-opacity:1.0000;stroke:#000000; stroke-opacity:1.0000;
stroke-linecap:round; stroke-linejoin:round;"
 transform="translate(0 0) scale(1 1)">
</g>
<g style="fill:none; 
stroke:#000000; stroke-width:0.2000; stroke-opacity:1; 
stroke-linecap:round; stroke-linejoin:round;">
<circle cx="232.5000" cy="87.5000" r="26.9258" /> 
</g>
<g style="fill:#000000; fill-opacity:1.0000; stroke:none;">
<circle cx="190.0000" cy="49.7730" r="0.5000" /> 
</g>
<g style="fill:#000000; fill-opacity:1.0000; stroke:none;">
<circle cx="145.0000" cy="67.5000" r="0.5000" /> 
</g>
<g style="fill:#000000; fill-opacity:1.0000; stroke:none;">
<circle cx="145.0000" cy="72.5000" r="0.5000" /> 
</g>
<g style="fill:#000000; fill-opacity:1.0000; stroke:none;">
<circle cx="145.0000" cy="62.5000" r="0.5000" /> 
</g>
<g style="fill:#000000; fill-opacity:1.0000; stroke:none;">
<circle cx="150.0000" cy="62.5000" r="0.5000" /> 
</g>
<g style="fill:#000000; fill-opacity:1.0000; stroke:none;">
<circle cx="150.0000" cy="57.5000" r="0.5000" /> 
</g>
<g style="fill:#000000; fill-opacity:1.0000; stroke:none;">
<circle cx="145.0000" cy="57.5000" r="0.5000" /> 
</g>
<g style="fill:#000000; fill-opacity:1.0000; stroke:none;">
<circle cx="140.0000" cy="57.5000" r="0.5000" /> 
</g>
<g style="fill:#000000; fill-opacity:1.0000; stroke:none;">
<circle cx="135.0000" cy="57.5000" r="0.5000" /> 
</g>
<g style="fill:#000000; fill-opacity:1.0000; stroke:none;">
<circle cx="135.0000" cy="62.5000" r="0.5000" /> 
</g>
<g style="fill:#000000; fill-opacity:1.0000; stroke:none;">
<circle cx="140.0000" cy="65.0000" r="0.5000" /> 
</g>
<g style="fill:#000000; fill-opacity:1.0000; stroke:none;">
<circle cx="190.0000" cy="95.0000" r="0.5000" /> 
</g>
<g style="fill:#000000; fill-opacity:1.0000; stroke:none;">
<circle cx="162.5000" cy="57.5000" r="0.5000" /> 
</g>
<g style="fill:#000000; fill-opacity:1.0000; stroke:none;">
<circle cx="157.5000" cy="55.0000" r="0.5000" /> 
</g>
<g style="fill:#000000; fill-opacity:1.0000; stroke:none;">
<circle cx="155.0000" cy="55.0000" r="0.5000" /> 
</g>
<g style="fill:#000000; fill-opacity:1.0000; stroke:none;">
<circle cx="155.0000" cy="60.0000" r="0.5000" /> 
</g>
<g style="fill:#000000; fill-opacity:1.0000; stroke:none;">
<circle cx="162.5000" cy="52.5000" r="0.5000" /> 
</g>
<g style="fill:#000000; fill-opacity:1.0000; stroke:none;">
<circle cx="130.0000" cy="55.0000" r="0.5000" /> 
</g>
<g style="fill:#000000; fill-opacity:1.0000; stroke:none;">
<circle cx="130.0000" cy="50.0000" r="0.5000" /> 
</g>
<g style="fill:#000000; fill-opacity:1.0000; stroke:none;">
<circle cx="112.5000" cy="50.0000" r="0.5000" /> 
</g>
<g style="fill:#000000; fill-opacity:1.0000; stroke:none;">
<circle cx="177.5000" cy="50.0000" r="0.5000" /> 
</g>
<g style="fill:#000000; fill-opacity:1.0000; stroke:none;">
<circle cx="177.5000" cy="65.0000" r="0.5000" /> 
</g>
<g style="fill:#000000; fill-opacity:1.0000; stroke:none;">
<circle cx="182.5000" cy="60.0000" r="0.5000" /> 
</g>
<g style="fill:#000000; fill-opacity:1.0000; stroke:none;">
<circle cx="182.5000" cy="67.5000" r="0.5000" /> 
</g>
<g style="fill:#000000; fill-opacity:1.0000; stroke:none;">
<circle cx="170.0000" cy="62.5000" r="0.5000" /> 
</g>
<g style="fill:#000000; fill-opacity:1.0000; stroke:none;">
<circle cx="172.5000" cy="70.0000" r="0.5000" /> 
</g>
<g style="fill:#000000; fill-opacity:1.0000; stroke:none;">
<circle cx="170.0000" cy="77.5000" r="0.5000" /> 
</g>
<g style="fill:#000000; fill-opacity:1.0000; stroke:none;">
<circle cx="170.0000" cy="85.0000" r="0.5000" /> 
</g>
<g style="fill:#000000; fill-opacity:1.0000; stroke:none;">
<circle cx="160.0000" cy="62.5000" r="0.5000" /> 
</g>
<g style="fill:#000000; fill-opacity:1.0000; stroke:none;">
<circle cx="160.0000" cy="67.5000" r="0.5000" /> 
</g>
<g style="fill:#000000; fill-opacity:1.0000; stroke:none;">
<circle cx="150.0000" cy="72.5000" r="0.5000" /> 
</g>
<g style="fill:#000000; fill-opacity:1.0000; stroke:none;">
<circle cx="162.5000" cy="72.5000" r="0.5000" /> 
</g>
<g style="fill:#000000; fill-opacity:1.0000; stroke:none;">
<circle cx="157.5000" cy="80.0000" r="0.5000" /> 
</g>
<g style="fill:#000000; fill-opacity:1.0000; stroke:none;">
<circle cx="162.5000" cy="77.5000" r="0.5000" /> 
</g>
<g style="fill:#000000; fill-opacity:1.0000; stroke:none;">
<circle cx="162.5000" cy="85.0000" r="0.5000" /> 
</g>
<g style="fill:#000000; fill-opacity:1.0000; stroke:none;">
<circle cx="150.0000" cy="85.0000" r="0.5000" /> 
</g>
<g style="fill:#000000; fill-opacity:1.0000; stroke:none;">
<circle cx="150.0000" cy="90.0000" r="0.5000" /> 
</g>
<g style="fill:#000000; fill-opacity:1.0000; stroke:none;">
<circle cx="140.0000" cy="75.0000" r="0.5000" /> 
</g>
<g style="fill:#000000; fill-opacity:1.0000; stroke:none;">
<circle cx="145.0000" cy="80.0000" r="0.5000" /> 
</g>
<g style="fill:#000000; fill-opacity:1.0000; stroke:none;">
<circle cx="140.0000" cy="80.0000" r="0.5000" /> 
</g>
<g style="fill:#000000; fill-opacity:1.0000; stroke:none;">
<circle cx="135.0000" cy="72.5000" r="0.5000" /> 
</g>
<g style="fill:#000000; fill-opacity:1.0000; stroke:none;">
<circle cx="135.0000" cy="80.0000" r="0.5000" /> 
</g>
<g style="fill:#000000; fill-opacity:1.0000; stroke:none;">
<circle cx="135.0000" cy="85.0000" r="0.5000" /> 
</g>
<g style="fill:#000000; fill-opacity:1.0000; stroke:none;">
<circle cx="182.5000" cy="75.0000" r="0.5000" /> 
</g>
<g style="fill:#000000; fill-opacity:1.0000; stroke:none;">
<circle cx="182.5000" cy="80.0000" r="0.5000" /> 
</g>
<g style="fill:#000000; fill-opacity:1.0000; stroke:none;">
<circle cx="182.5000" cy="50.0000" r="0.5000" /> 
</g>
<g style="fill:#000000; fill-opacity:1.0000; stroke:none;">
<circle cx="177.5000" cy="70.0000" r="0.5000" /> 
</g>
<g style="fill:#000000; fill-opacity:1.0000; stroke:none;">
<circle cx="177.5000" cy="80.0000" r="0.5000" /> 
</g>
<g style="fill:#000000; fill-opacity:1.0000; stroke:none;">
<circle cx="170.0000" cy="92.5000" r="0.5000" /> 
</g>
<g style="fill:#000000; fill-opacity:1.0000; stroke:none;">
<circle cx="160.0000" cy="95.0000" r="0.5000" /> 
</g>
<g style="fill:#000000; fill-opacity:1.0000; stroke:none;">
<circle cx="150.0000" cy="95.0000" r="0.5000" /> 
</g>
<g style="fill:#000000; fill-opacity:1.0000; stroke:none;">
<circle cx="137.5000" cy="95.0000" r="0.5000" /> 
</g>
<g style="fill:#000000; fill-opacity:1.0000; stroke:none;">
<circle cx="130.0000" cy="62.5000" r="0.5000" /> 
</g>
<g style="fill:#000000; fill-opacity:1.0000; stroke:none;">
<circle cx="125.0000" cy="77.5000" r="0.5000" /> 
</g>
<g style="fill:#000000; fill-opacity:1.0000; stroke:none;">
<circle cx="130.0000" cy="85.0000" r="0.5000" /> 
</g>
<g style="fill:#000000; fill-opacity:1.0000; stroke:none;">
<circle cx="130.0000" cy="90.0000" r="0.5000" /> 
</g>
<g style="fill:#000000; fill-opacity:1.0000; stroke:none;">
<circle cx="130.0000" cy="95.0000" r="0.5000" /> 
</g>
<g style="fill:#000000; fill-opacity:1.0000; stroke:none;">
<circle cx="110.0000" cy="70.0000" r="0.5000" /> 
</g>
<g style="fill:#000000; fill-opacity:1.0000; stroke:none;">
<circle cx="117.5000" cy="77.5000" r="0.5000" /> 
</g>
<g style="fill:#000000; fill-opacity:1.0000; stroke:none;">
<circle cx="110.0000" cy="77.5000" r="0.5000" /> 
</g>
<g style="fill:#000000; fill-opacity:1.0000; stroke:none;">
<circle cx="109.8584" cy="95.0000" r="0.5000" /> 
</g>
<g style="fill:#000000; fill-opacity:1.0000; stroke:none;">
<circle cx="110.0000" cy="90.0000" r="0.5000" /> 
</g>
<g style="fill:#000000; fill-opacity:1.0000; stroke:none;">
<circle cx="110.0000" cy="85.0000" r="0.5000" /> 
</g>
<g style="fill:none; 
stroke:#000000; stroke-width:0.5000; stroke-opacity:1; 
stroke-linecap:round; stroke-linejoin:round;">
<path d="M150.0000 62.5000
L150.0000 57.5000
" />
<path d="M145.0000 67.5000
L145.0000 62.5000
" />
<path d="M145.0000 72.5000
L145.0000 67.5000
" />
<path d="M135.0000 70.0000
L145.0000 70.0000
" />
<path d="M145.0000 57.5000
L150.0000 57.5000
" />
<path d="M157.5000 55.0000
L160.0595 55.0000
" />
<path d="M160.0595 55.0000
L162.5000 57.4405
" />
<path d="M162.5000 57.4405
L162.5000 57.5000
" />
<path d="M155.0000 55.0000
L155.0000 60.0000
" />
<path d="M155.0000 55.0000
L157.5000 55.0000
" />
<path d="M162.5000 50.0000
L140.0000 50.0000
" />
<path d="M140.0000 57.5000
L140.0000 50.0000
" />
<path d="M137.5000 65.0000
L140.0000 65.0000
" />
<path d="M132.5000 55.0000
L135.0000 57.5000
" />
<path d="M130.0000 55.0000
L132.5000 55.0000
" />
<path d="M135.0000 62.5000
L137.5000 65.0000
" />
<path d="M135.0000 57.5000
L135.0000 62.5000
" />
<path d="M177.5000 50.0000
L162.5000 50.0000
" />
<path d="M162.5000 52.5000
L162.5000 50.0000
" />
<path d="M130.0000 50.0000
L112.5000 50.0000
" />
<path d="M112.5000 50.0000
L110.0000 50.0000
" />
<path d="M140.0000 50.0000
L130.0000 50.0000
" />
<path d="M177.5000 65.0000
L177.5000 50.0000
" />
<path d="M182.5000 60.0000
L182.5000 67.5000
" />
<path d="M170.0000 72.5000
L170.0000 62.5000
" />
<path d="M170.0000 77.5000
L170.0000 72.5000
" />
<path d="M170.0000 72.5000
L172.5000 70.0000
" />
<path d="M170.0000 85.0000
L170.0000 77.5000
" />
<path d="M160.0000 62.5000
L160.0000 67.5000
" />
<path d="M150.0000 72.5000
L155.0000 67.5000
" />
<path d="M155.0000 67.5000
L160.0000 67.5000
" />
<path d="M157.5000 80.0000
L157.5000 72.5000
" />
<path d="M157.5000 72.5000
L162.5000 72.5000
" />
<path d="M162.5000 85.0000
L162.5000 77.5000
" />
<path d="M152.5000 80.0000
L157.5000 85.0000
" />
<path d="M145.0000 80.0000
L152.5000 80.0000
" />
<path d="M157.5000 85.0000
L162.5000 85.0000
" />
<path d="M150.0000 90.0000
L150.0000 85.0000
" />
<path d="M140.0000 75.0000
L140.0000 80.0000
" />
<path d="M130.0000 70.0000
L135.0000 70.0000
" />
<path d="M135.0000 72.5000
L135.0000 70.0000
" />
<path d="M130.0000 77.5000
L130.0000 70.0000
" />
<path d="M135.0000 85.0000
L135.0000 80.0000
" />
<path d="M130.0000 90.0000
L135.0000 85.0000
" />
<path d="M182.5000 80.0000
L182.5000 75.0000
" />
<path d="M187.5000 55.0000
L182.5000 50.0000
" />
<path d="M177.5000 85.0000
L185.0000 85.0000
" />
<path d="M185.0000 85.0000
L187.5000 82.5000
" />
<path d="M177.5000 95.0000
L177.5000 85.0000
" />
<path d="M187.5000 82.5000
L187.5000 55.0000
" />
<path d="M177.5000 70.0000
L177.5000 80.0000
" />
<path d="M177.5000 85.0000
L177.5000 80.0000
" />
<path d="M160.0000 95.0000
L170.0000 95.0000
" />
<path d="M170.0000 92.5000
L170.0000 95.0000
" />
<path d="M170.0000 95.0000
L177.5000 95.0000
" />
<path d="M160.0000 95.0000
L150.0000 95.0000
" />
<path d="M137.5000 95.0000
L150.0000 95.0000
" />
<path d="M130.0000 95.0000
L137.5000 95.0000
" />
<path d="M122.5000 95.0000
L130.0000 95.0000
" />
<path d="M130.0000 85.0000
L130.0000 77.5000
" />
<path d="M125.0000 77.5000
L130.0000 77.5000
" />
<path d="M130.0000 70.0000
L130.0000 62.5000
" />
<path d="M117.5000 90.0000
L122.5000 95.0000
" />
<path d="M110.0000 90.0000
L117.5000 90.0000
" />
<path d="M110.0000 85.0000
L110.0000 90.0000
" />
<path d="M110.0000 77.5000
L117.5000 77.5000
" />
</g> 
</svg>
